<?xml version="1.0" standalone="no"?><!DOCTYPE svg PUBLIC "-//W3C//DTD SVG 1.1//EN" "http://www.w3.org/Graphics/SVG/1.1/DTD/svg11.dtd"><svg t="1599106064511" class="icon" viewBox="0 0 1024 1024" version="1.1" xmlns="http://www.w3.org/2000/svg" p-id="1151" xmlns:xlink="http://www.w3.org/1999/xlink" width="200" height="200"><defs><style type="text/css"></style></defs><path d="M110.08 808.409c22.43 7.581 46.927 2.973 68.962-13.135 0.572 0.886 1.123 1.752 1.694 2.619-37.632 22.961-58.624 55.02-58.624 90.762 0 73.511 86.469 126.858 205.627 126.858 63.193 0 121.758-16.404 159.39-44.288 12.229 0.689 23.138 0.689 35.505 0.02 37.632 27.864 96.177 44.268 159.37 44.268 119.138 0 205.646-53.347 205.646-126.858 0-35.663-20.913-67.624-58.387-90.605a99.888 99.888 0 0 0 1.713-2.638c21.977 15.99 46.316 20.618 68.766 13.016 67.17-22.823 70.833-140.012 40.192-238.69-16.266-52.342-46.16-93.361-71.07-120.655 0.295-3.78 0.453-7.542 0.453-11.343 0-28.947-7.582-57.029-22.528-83.672v-0.374c0-190.327-153.265-345.187-341.642-345.187-188.396 0-341.661 154.86-341.661 345.187v1.22c-14.632 26.388-22.056 54.213-22.056 82.807 0 3.446 0.118 6.931 0.394 10.476-25.226 27.451-55.473 68.785-71.857 121.54-30.661 98.718-26.998 215.868 40.113 238.672z m7.956-223.725c15.242-49.132 45.45-86.96 68.096-110.02a25.196 25.196 0 0 0 6.892-21.564c-0.827-5.317-1.26-10.397-1.26-15.34 0-21.681 6.301-43.047 18.688-63.429a25.488 25.488 0 0 0 3.623-14.828 79.882 79.882 0 0 1-0.236-5.79c0-162.56 130.678-294.813 291.288-294.813s291.289 132.253 291.289 294.813c0 1.753-0.079 3.446-0.197 5.16a25.277 25.277 0 0 0 3.683 14.828c12.642 20.559 19.042 42.102 19.042 64.04 0 5.159-0.453 10.377-1.359 15.93-1.339 7.917 1.221 15.951 6.833 21.721 22.37 22.902 52.264 60.475 67.407 109.292 26.959 86.784 17.507 167.286-8.211 176.03-13.332 4.51-29.125-9.708-38.952-21.445-5.336-6.42-13.41-9.807-21.937-8.881a25.137 25.137 0 0 0-19.594 13.233 324.714 324.714 0 0 1-31.252 47.97 25.242 25.242 0 0 0-4.549 21.918 25.215 25.215 0 0 0 14.69 16.876c35.152 14.651 55.277 35.88 55.277 58.25 0 42.181-69.651 76.485-155.274 76.485-55.512 0-107.185-14.828-134.813-38.715a25.174 25.174 0 0 0-16.463-6.124c-0.61 0-1.26 0.02-1.87 0.078-17.389 1.3-30.957 1.28-47.853-0.02-6.932-0.61-13.351 1.675-18.393 6.046-27.667 23.907-79.34 38.735-134.872 38.735-85.603 0-155.254-34.304-155.254-76.485 0-22.45 20.243-43.737 55.512-58.368 7.286-3.033 12.721-9.236 14.71-16.876a25.113 25.113 0 0 0-4.51-21.918c-11.874-15.183-22.37-31.35-31.231-48.049a25.163 25.163 0 0 0-19.633-13.253c-8.468-0.886-16.581 2.462-21.957 8.881-9.886 11.835-25.522 26.349-39.11 21.622-25.776-8.704-35.19-89.186-8.25-175.99z" p-id="1152"></path></svg>