<?xml version="1.0" standalone="no"?><!DOCTYPE svg PUBLIC "-//W3C//DTD SVG 1.1//EN" "http://www.w3.org/Graphics/SVG/1.1/DTD/svg11.dtd"><svg t="1599106124676" class="icon" viewBox="0 0 1024 1024" version="1.1" xmlns="http://www.w3.org/2000/svg" p-id="3500" xmlns:xlink="http://www.w3.org/1999/xlink" width="200" height="200"><defs><style type="text/css"></style></defs><path d="M860.605629 794.818297c62.708204-46.846958 98.367355-114.1232 98.367355-186.606025 0-124.932384-107.687628-228.428549-246.699682-244.213048C694.076872 220.944088 555.24799 113.231901 388.674207 113.231901c-179.531909 0-325.59352 126.529765-325.59352 282.053887 0 83.857896 41.801035 161.656797 115.204835 215.374232-4.007267 17.577331-18.09717 54.55757-33.920554 88.097454-5.649674 11.969613-2.604314 26.240641 7.435343 34.864042 5.481851 4.711302 12.313443 7.104815 19.174712 7.104815 5.701862 0 11.423167-1.656733 16.407692-5.008061 43.098587-28.994358 97.121991-61.827137 114.845655-68.413136 28.04166 6.659677 57.092299 10.037611 86.445838 10.037611 4.737908 0 9.487072-0.106424 14.228049-0.283456 34.393321 102.412484 143.480832 177.460738 272.38876 177.460738 25.082258 0 49.906643-2.834558 73.892941-8.425903 15.937994 6.405897 60.865229 33.805944 96.594989 57.83522 4.983501 3.351328 10.709923 5.008061 16.411785 5.008061 6.860245 0 13.69286-2.393513 19.174712-7.104815 10.039657-8.627495 13.0799-22.899546 7.430226-34.868135C876.128161 840.123133 864.618013 810.354132 860.605629 794.818297zM388.674207 618.510826c-26.480094 0-52.621475-3.240811-77.698616-9.637498-8.704243-2.219551-20.735253-5.278213-78.948073 28.728298 8.795317-29.173436 10.527774-54.349839-9.790994-67.964928-63.757093-42.723034-100.32494-106.271372-100.32494-174.348863 0-123.085316 119.667473-223.224014 266.762623-223.224014 133.450385 0 244.903779 81.280188 263.931135 190.632735-145.854902 10.06831-260.996293 116.333542-260.996293 245.51674 0 3.439332 0.103354 6.858198 0.265036 10.263761C390.806777 618.486266 389.739469 618.510826 388.674207 618.510826zM815.865659 754.429425c-17.149589 11.485589-18.159592 30.708396-12.754488 53.204759-31.210839-17.527189-45.367257-21.324678-53.827953-21.324678-3.471055 0-5.984295 0.636496-8.320503 1.235131-21.185508 5.405103-43.284829 8.143471-65.671699 8.143471-123.985826 0-224.852094-84.099397-224.852094-187.476859 0-103.374392 100.866269-187.474812 224.852094-187.474812s224.852094 84.099397 224.852094 187.474812C900.142088 665.24522 869.420389 718.541053 815.865659 754.429425z" p-id="3501"></path><path d="M246.388597 322.556347a39.957 36.191 0 1 0 81.776492 0 39.957 36.191 0 1 0-81.776492 0Z" p-id="3502"></path><path d="M458.879152 322.556347a39.957 36.191 0 1 0 81.776492 0 39.957 36.191 0 1 0-81.776492 0Z" p-id="3503"></path><path d="M566.159504 530.367323a32.066 29.044 0 1 0 65.626673 0 32.066 29.044 0 1 0-65.626673 0Z" p-id="3504"></path><path d="M729.48429 530.367323a32.066 29.044 0 1 0 65.626673 0 32.066 29.044 0 1 0-65.626673 0Z" p-id="3505"></path></svg>