<?xml version="1.0" standalone="no"?><!DOCTYPE svg PUBLIC "-//W3C//DTD SVG 1.1//EN" "http://www.w3.org/Graphics/SVG/1.1/DTD/svg11.dtd"><svg t="1610794274219" class="icon" viewBox="0 0 1024 1024" version="1.1" xmlns="http://www.w3.org/2000/svg" p-id="13022" xmlns:xlink="http://www.w3.org/1999/xlink" width="200" height="200"><defs><style type="text/css"></style></defs><path d="M795 282c-21-7-42-32-56-46s-26-72-26-72L512 89l-201 75s-12 58-26 72-35 39-56 46l-20 6s0 273 133 405c132 133 170 130 170 130s38 3 170-130c133-132 133-405 133-405l-20-6z" fill="#3D3179" p-id="13023"></path><path d="M894 606l28-28c28-28 14-120 14-120h-22v-42c0-42-34-75-42-75s-34 20-34 20l-9 14c-13 98-46 246-135 335-129 129-174 138-181 139l-1 1-1-1c-7-1-52-10-181-139-89-89-122-237-135-335l-9-13s-26-21-34-21c-7 0-42 33-42 75v42H88s-14 92 14 120l28 28s-31-9-40 0 6 70 60 124 88 71 88 71-47-1-67 10l-21 12s7 68 115 91c83 17 174 37 217 44l10 1 12 1 14-1c9 5 133-23 241-45 108-23 115-91 115-91l-21-12c-21-11-67-10-67-10s34-17 88-71 69-115 60-124-40 0-40 0z" fill="#E58D2E" p-id="13024"></path><path d="M814 269c-22-6-44-33-59-48s-28-77-28-77L513 64l-215 80s-13 62-28 77-37 41-59 48l-22 7s0 41 7 99c13 98 46 246 135 335 129 129 174 138 181 139h2c7-1 52-10 181-139 89-89 122-237 135-335 7-58 7-99 7-99l-22-7z m-11 144c-14 90-47 207-121 280l-14 14c-4-4-9-7-10-5-2 4-9 2-9 2v-15h-4v3h-2v-5h-3v3h-1v-3h-3v2h-2v-4h-4v5h-2v-5h-3v5h-2v-6h-6v22l-3 3-4-3-1-1-5-1s-16-4-23 0c-7 5-14 2-14 2v-32h-6v5h-4v-8h-4v6h-3v-10h-6v4h-3v-7h-6v7h-7v-7h-6v7h-6v-7h-7v7h-5v-7h-5v8h-8v-8h-7v33s-24 3-26 2c-2-2-7 0-7 0l-13 3-2 10h-4l-12-10c-4-4-8-4-9-4l-1-1v-19h-7v-6h-3v4h-3v-5h-3v4h-3v-5h-4v4h-2v-5h-6v5h-6v-5h-4v24s-10-7-15-7c-4 0-7 7-8 11l-4-4a526 526 0 0 1-121-280c-12-72-12-125-12-125l20-7c21-6 42-31 56-45s26-72 26-72l201-75 202 75s11 58 25 72 35 39 56 46l20 6s0 54-12 125z" fill="#FAAA46" p-id="13025"></path><path d="M512 78.5m-7 0a7 7 0 1 0 14 0 7 7 0 1 0-14 0Z" fill="#D48931" p-id="13026"></path><path d="M491.1 86.2m-7 0a7 7 0 1 0 14 0 7 7 0 1 0-14 0Z" fill="#D48931" p-id="13027"></path><path d="M470.3 93.9m-7 0a7 7 0 1 0 14 0 7 7 0 1 0-14 0Z" fill="#D48931" p-id="13028"></path><path d="M449.4 101.6m-7 0a7 7 0 1 0 14 0 7 7 0 1 0-14 0Z" fill="#D48931" p-id="13029"></path><path d="M428.5 109.2m-7 0a7 7 0 1 0 14 0 7 7 0 1 0-14 0Z" fill="#D48931" p-id="13030"></path><path d="M407.7 116.9m-7 0a7 7 0 1 0 14 0 7 7 0 1 0-14 0Z" fill="#D48931" p-id="13031"></path><path d="M386.8 124.6m-7 0a7 7 0 1 0 14 0 7 7 0 1 0-14 0Z" fill="#D48931" p-id="13032"></path><path d="M366 132.3m-7 0a7 7 0 1 0 14 0 7 7 0 1 0-14 0Z" fill="#D48931" p-id="13033"></path><path d="M345.1 140m-7 0a7 7 0 1 0 14 0 7 7 0 1 0-14 0Z" fill="#D48931" p-id="13034"></path><path d="M324.2 147.7m-7 0a7 7 0 1 0 14 0 7 7 0 1 0-14 0Z" fill="#D48931" p-id="13035"></path><path d="M304.1 156.6m-7 0a7 7 0 1 0 14 0 7 7 0 1 0-14 0Z" fill="#D48931" p-id="13036"></path><path d="M262.5 244.5m-7 0a7 7 0 1 0 14 0 7 7 0 1 0-14 0Z" fill="#D48931" p-id="13037"></path><path d="M279.9 224.5m-7 0a7 7 0 1 0 14 0 7 7 0 1 0-14 0Z" fill="#D48931" p-id="13038"></path><path d="M220.9 275.4m-7 0a7 7 0 1 0 14 0 7 7 0 1 0-14 0Z" fill="#D48931" p-id="13039"></path><path d="M198.2 283.1m-7 0a7 7 0 1 0 14 0 7 7 0 1 0-14 0Z" fill="#D48931" p-id="13040"></path><path d="M243.7 262m-7 0a7 7 0 1 0 14 0 7 7 0 1 0-14 0Z" fill="#D48931" p-id="13041"></path><path d="M290.9 201.1m-7 0a7 7 0 1 0 14 0 7 7 0 1 0-14 0Z" fill="#D48931" p-id="13042"></path><path d="M297.9 178.8m-7 0a7 7 0 1 0 14 0 7 7 0 1 0-14 0Z" fill="#D48931" p-id="13043"></path><path d="M532.9 86.2m-7 0a7 7 0 1 0 14 0 7 7 0 1 0-14 0Z" fill="#D48931" p-id="13044"></path><path d="M553.7 93.9m-7 0a7 7 0 1 0 14 0 7 7 0 1 0-14 0Z" fill="#D48931" p-id="13045"></path><path d="M574.6 101.6m-7 0a7 7 0 1 0 14 0 7 7 0 1 0-14 0Z" fill="#D48931" p-id="13046"></path><path d="M595.5 109.2m-7 0a7 7 0 1 0 14 0 7 7 0 1 0-14 0Z" fill="#D48931" p-id="13047"></path><path d="M616.3 116.9m-7 0a7 7 0 1 0 14 0 7 7 0 1 0-14 0Z" fill="#D48931" p-id="13048"></path><path d="M637.2 124.6m-7 0a7 7 0 1 0 14 0 7 7 0 1 0-14 0Z" fill="#D48931" p-id="13049"></path><path d="M658 132.3m-7 0a7 7 0 1 0 14 0 7 7 0 1 0-14 0Z" fill="#D48931" p-id="13050"></path><path d="M678.9 140m-7 0a7 7 0 1 0 14 0 7 7 0 1 0-14 0Z" fill="#D48931" p-id="13051"></path><path d="M699.8 147.7m-7 0a7 7 0 1 0 14 0 7 7 0 1 0-14 0Z" fill="#D48931" p-id="13052"></path><path d="M719.9 156.6m-7 0a7 7 0 1 0 14 0 7 7 0 1 0-14 0Z" fill="#D48931" p-id="13053"></path><path d="M761.5 244.5m-7 0a7 7 0 1 0 14 0 7 7 0 1 0-14 0Z" fill="#D48931" p-id="13054"></path><path d="M744.1 224.5m-7 0a7 7 0 1 0 14 0 7 7 0 1 0-14 0Z" fill="#D48931" p-id="13055"></path><path d="M803.1 275.4m-7 0a7 7 0 1 0 14 0 7 7 0 1 0-14 0Z" fill="#D48931" p-id="13056"></path><path d="M825.8 283.1m-7 0a7 7 0 1 0 14 0 7 7 0 1 0-14 0Z" fill="#D48931" p-id="13057"></path><path d="M780.3 262m-7 0a7 7 0 1 0 14 0 7 7 0 1 0-14 0Z" fill="#D48931" p-id="13058"></path><path d="M733.1 201.1m-7 0a7 7 0 1 0 14 0 7 7 0 1 0-14 0Z" fill="#D48931" p-id="13059"></path><path d="M726.1 178.8m-7 0a7 7 0 1 0 14 0 7 7 0 1 0-14 0Z" fill="#D48931" p-id="13060"></path><path d="M728 360c0-11-2-22-4-33a204 204 0 0 0-101-136 208 208 0 0 0-95-27h-22l-3 1a220 220 0 0 0-145 67 202 202 0 0 0-58 134v26l2 15a208 208 0 0 0 57 117l1 1 2 2v1l-10 52-2 13 6 2c5 1 5 1 5 5 0 2 1 2 2 2l11 2c2 1 3 1 3 4v5l18 2c2 0 2 1 2 2l1 5h32l1-12 1-2 5-3v7c0 2 0 2 2 2l9 1 1 2 1 4h18l2-1c1-2 2-3 4-3h2c2 0 4 1 4 3l2 1h19l3-1c0-2 1-2 2-2h11c1 0 2 0 3 2l2 1a540 540 0 0 1 21-1c0-2 2-3 3-2h2c3-1 5 0 6 2l2 1h17l1-6 12-1v-9l6 4v2l1 11h32a843 843 0 0 1 2-7l14-2h5v-7l2-2 9-1c5-1 5-1 5-6l2-2 9-2v-2l-11-54-2-10a209 209 0 0 0 68-136l1-13v-16l-1-2zM546 519c-6-10-20-16-35-16s-28 6-35 16c-64-16-110-74-110-143 0-82 67-147 149-147s149 66 149 147c0 69-52 127-118 143z" fill="#EF9C48" p-id="13061"></path><path d="M398 622l-1-4c0-2 0-3-2-3l-19-2 1-5c0-2-1-3-3-3l-12-2-1-2c-1-5-1-5-5-6l-6-1 2-13 10-53 2-5 14-26 2 1a207 207 0 0 0 101 49c4 1 8 0 12-3l-4-1c1-8 11-15 20-16 10 0 20 6 23 15l-3 1v1l4 2h10c37-6 69-22 97-46l4-3 5 8 10 20 3 12 10 54v3l-8 2c-2 0-2 1-2 2-1 5-1 5-5 5l-9 2c-2 0-2 1-2 2v7h-5l-14 2-2 1v6h-32l-1-12-1-2-6-3v9l-12 1-1 6h-17l-1-1c-2-2-4-3-7-3h-1c-2 0-3 0-4 2 0 2-1 2-2 2a540 540 0 0 0-21-2l-2-1h-12l-2 1-2 2h-19l-2-1c-1-2-2-3-4-3h-2l-5 2-2 2h-17l-1-5-2-1-9-1c-1 0-2 0-2-2v-7l-5 3-1 2-1 12-31-1z m199-51l-2 4v45h2l22-1c2 0 3-1 3-3l1-3 1-1 12-2c5-1 5-1 6-6l1-2 10-2c3 0 5-2 6-5l2-2 7-1v-2l-13-63c0-2-1-3-3-4v6a8540 8540 0 0 0 10 58 486 486 0 0 1-11 1l-7-45-2-5c-2 1-3 3-2 5l2 15 4 34 2 1h5v4l-19 2-4-48c-4 2-4 2-4 6l2 35 1 11h7v4h-20v-4l-1-33-2-6h-1l-2 8 1 32v8h6v4h-16l-1-1a5257 5257 0 0 1-3-44z m-237 16l1-2 9-56v-6l-3 4-11 57-1 7 4 1c3 0 5 2 6 5 0 2 1 2 2 3l9 2c5 1 5 1 5 5v1l2 2 12 1c4 0 6 2 6 6l2 2h24v-45l-1-3c-2 0-3 1-3 3l-1 34 1 7h-18v-4h6v-3l1-36-2-9-2 8-1 25-1 11h-20v-5h7v-1l4-47-1-2-4-2-3 49-20-3 1-4h6l1-2 6-48c0-2 0-3-2-5l-2 5-5 34-2 13-12-2z m205 28h-7l-2-2-1-12v-3c1-2 0-4-2-5l2-2h-1l-3 3v18h-10v-4c0-3 0-4-4-4l-1 13h-11l-1-10c-2-1-3 0-3 2l-1 3c-1 1-1 2-3 2h-9c-5 0-5 0-6-5-1-2-2-3-3-2l-2 9h-11l-1-12c-4 1-4 1-4 4v4h-10v-18l-2-3-2 1 2 2-2 1c1 7-1 13-1 20h-9v-18l-1-4c-2 2-3 3-2 6v9l-2 2h-6c-2 0-2-1-2-2l-1-5c-4 2-2 5-2 8h11a338 338 0 0 0 3 8h11l1-1c2-2 4-2 7-2h5l4 1c1 2 2 2 4 2h11c1 0 2 0 3-2l2-2h16c2 0 3 1 4 3l1 1a277 277 0 0 0 15 0c2-3 4-3 7-3h5l4 1 2 2h11l2-2 1-6h11c-1-3 2-6-2-8l-1 5-1 2h-9v-11l-2-6c-2 2-1 4-1 7l-1 15zM377 512c-3 3-3 5-1 9 4 8 9 15 16 22 11 10 23 18 36 24s26 9 40 9l13-2h-10c-20-1-36-7-50-21-8-9-15-20-19-31-1-3-3-4-5-5 3 19 14 32 28 44-3 0-6-1-9-4l-12-11c-8-10-13-21-17-33-1-4-1-4-5-4 4 15 11 27 20 39-14-8-19-23-25-36z m165 61v1h1c11 3 22 2 33-1 18-4 34-13 48-24 10-8 18-18 23-29 2-3 1-5-1-8l-5 10c-4 8-8 15-14 21l-7 5c9-12 16-24 20-39-4 0-4 0-5 3a89 89 0 0 1-29 45c-2 2-5 4-8 3 13-11 24-24 28-43-3 1-4 3-6 5l-8 17a70 70 0 0 1-70 34z m-134-47l1 1c4 8 9 16 15 22 8 9 18 16 30 19s23 1 35-3l7-2v-1h-2l-16 3c-15 1-29-3-41-11-11-7-19-17-26-27 0-2-1-2-3-1z m206 0c-1-1-2-1-3 1-4 7-9 13-15 19a63 63 0 0 1-52 19l-15-3c-1 0-2-1-3 1l21 6c16 2 30-1 43-11 7-6 12-12 17-20l7-12z m-146 60l9 7h1c2-2 4 0 6 1l-2 4 12 4 4-1c2-2 3-2 5 1l3 1h9c3 0 5 0 6-2s3-1 4-1c1 1 3 3 4 2l12-4-1-4c2-1 3-3 5-1h2l9-6-2-2v1h-5l-4 4c-2-1-5-2-6-1-2 1-3 3-2 5l-1 2-6 3c-1-1-2-4-4-4-1-1-3 0-5 1-2 0-4 0-4 2s-1 2-3 2h-5c-2 0-3 0-3-2s-1-2-3-2l-2-1c-3-1-5 0-7 3l-1 1-7-3c1-3 2-5-1-7-2-1-5 0-7 1l-3-3c-1-1-2-3-3-1-1 0-3-3-4 0z m43-51h-3c-5 1-11 5-12 10-2 7 3 15 11 17s16-2 18-10v-7c-2-6-7-10-14-10z m27 44l-3-2c-2-1-3 0-5 1-10 6-21 8-32 4l-12-7-4 3c14 14 39 16 56 1z m-107 21c1 2 3 2 5 1l29-17 2-2-2-1-5-2-3-1h-3l-17 11-7 5c1 3 2 3 4 1l21-13c2-1 3-1 5 1l-29 17z m161 0l-29-17c1-2 3-2 4-1l21 14c3 1 4 1 4-2l-24-16h-1l-5 1c-2 0-5 1-6 3l3 2 28 17c2 2 3 1 5-1z m-63-42c14 4 29 4 42-2 11-5 19-12 26-21-3 1-6 1-8 4l-8 7a59 59 0 0 1-48 11l-4 1z m-35 0l-6-1c-12 2-24 1-36-5-7-3-14-8-20-14-1-2-4-2-6-3 17 24 42 29 68 23z m-1 13c7 7 24 8 32 2l-7-4h-1c-6 2-12 2-17-1h-2l-5 3z m71-24h-1c-10 2-20 5-32 4 0 1 0 2 2 2h11c6 0 11-1 16-3l4-3z m-105 0c1 2 3 3 7 5 8 2 16 2 24 1 2 0 1-1 1-2-11 1-21-2-32-4z m114 31l18 12c1-2 1-3-1-4l-13-9c-2-1-3-1-4 1z m-142 12l19-12c-2-2-3-2-4-1l-14 9c-1 1-2 2-1 4z m162-10l-9-5-2 1 1 2 6 5 4-3z m-160 3l6-5 1-2-2-1-8 5 3 3z" fill="#DB0303" p-id="13062"></path><path d="M528 165h9a210 210 0 0 1 141 71 201 201 0 0 1 50 124v18l-1 13a210 210 0 0 1-61 130l-1 2-2-5 1-2a205 205 0 0 0 21-264 202 202 0 0 0-161-82 209 209 0 0 0-219 214c2 52 21 97 56 135v3l-1 3-9-10a210 210 0 0 1-51-122v-26a212 212 0 0 1 203-201l3-1h22z" fill="#D48931" p-id="13063"></path><path d="M561 529l-5-9-5 3-4-5-1-2 3-4-7-6-3 4-7-3 3-5-9-4-2 4-1 1-8-1v-6h-9v4c0 2 0 2-2 2l-5 1c-1 1-2 0-2-1l-2-5-9 5 3 5-6 4-4-5-7 6 3 5-1 1-4 5-5-2-5 8 6 3-2 6 7 1c3-7 7-14 12-19 6-6 14-9 25-10 12-1 23 3 30 10 5 5 9 11 12 18l8-2-2-4 5-3z" fill="#D48931" p-id="13064"></path><path d="M531 521a35 35 0 0 0-41 0c-7 5-13 12-13 19l6 2c4-11 11-17 21-20h13c10 3 17 9 21 19l6-2c-1-6-6-13-13-18zM310 407v-1l-1-7 6-5 43-39 1-1-1 9-2 1-44 42-2 1z m407-2l-8-7a12075 12075 0 0 1-38-37l-2-9 1 1 47 42c1 1 2 2 1 4l-1 6z m-403 15l-2-7 1-2 40-37 4-3v7l-1 2-37 35-5 5z m399-2l-15-15-25-23c-2-2-3-3-2-6v-5l2 1 40 39c2 1 2 2 1 3l-1 6z m-357 88l-4-6-1-1 22-48 5 6v2l-22 46v1z m25-47l1 1 4 6-3 6-18 41-1 1-4-5v-2l21-47v-1z m272-11l11 27a894 894 0 0 0 9 24l-4 4-1-2-20-44 1-3 4-6z m8 64l-3-7-18-40 1-3 3-5 3 6 18 41-1 3-3 5zM319 317c2 1 3 2 2 5-6 21-9 42-8 64 0 2-1 3-3 4-1-25 2-50 9-73z m391-2c7 24 10 48 7 73-1-1-2-2-2-5 1-21-1-43-7-64l2-4z m-338-18c-3-4-3-4-7-2h-1c-2 1-3 0-2-2l3-5 6-5 3-1 2 1c1 2 1 5-1 7v4l6-1c2 0 2 0 2 2l-1 5c-1 2-3 2-5 1h-1l-2 1c-1 0-3 1-4-1-1-1 0-3 1-4h1z m287-2l1 4c0 2-1 3-3 2l-2-1h-2c-2 1-4 1-4-1l-2-6 2-1 7 1-1-4v-7l2-1 4 3 3 2 4 5v3h-3c-3-2-5-1-6 1z m-333 29c1 1 2 2 1 4-4 15-6 31-6 46v6l-3 3c-1-20 2-40 8-59z m378-2c5 20 7 39 6 59-2 0-3-1-3-4 0-17-1-34-5-51-1-2 1-2 2-4z m-379 56c0-20 3-39 9-57h3l-3 9c-4 14-6 29-6 44 0 2-1 2-3 4z m368-58l2-1c6 19 8 38 8 57-2-1-3-2-3-4 0-17-2-34-7-50v-2z m-360 51c1-17 4-33 9-48h2l-3 14c-3 10-4 20-5 30 0 3 0 3-3 4z m352-49l3-1c4 16 7 32 7 48-2 0-3-1-3-4 0-14-2-27-6-41l-1-2z m-344-52l4 9c2 3 2 6 0 8l-3 3h-2v-4l-2-2c-2-1-1-3-1-4 1-4 1-7 4-10z m-11 187l6 12 10 19c2 2 1 3 0 5-8-11-14-23-19-35l3-1z m366-2l3 1c-5 12-12 23-20 34-2-2-2-3 0-5a192 192 0 0 0 17-30z m-6-186c3 4 3 8 4 12l-1 1c-2 1-2 2-2 4l-1 2-1 2-2-1-2-5-1-4 6-11zM440 532l-5-2-1-1-5-24c4 1 5 2 6 5l5 22z m145-3l2-11 3-11 3-4 3-1-3 14-3 9c0 2-1 3-3 3l-2 1z m-77-355c0 2-1 3-3 3-11 0-21 2-32 4h-2c0-2 1-3 3-4a207 207 0 0 1 34-3z m17-1l16 2 18 2c2 1 3 2 3 4l-9-1-25-3c-2 0-2 0-3-4z m-86 32c4 0 8 1 12 4 2 2 2 3-1 3-4 2-9 1-13-1l-2-1-1-4 3-1h2z m148 8l-5-1c-2-1-3-2-1-4l9-3 7-1c1 0 2 1 1 3 0 2-1 3-3 4l-8 2z m19-19c3 0 8 3 8 6l1 9c0 1-1 2-2 1-3-1-5-2-6-6l-1-10z m-179 0c1 5-1 9-3 13l-5 4-2-1c-1-4 0-8 2-11 1-3 4-4 8-5z m100-12l27 3 9 1 1 3h-2c-11-2-22-4-33-4-2 0-2 0-2-3z m-21 0v2l-27 4-8 2-2-1 1-2 10-2 24-3h2z m180 215c2 7-3 17-10 18-2-7 3-16 10-18zM406 246l-1 4-4 7-5 5-2 1-1-3 2-8c2-4 7-4 10-6h1z m-64 152c6 2 11 11 9 18-6 1-12-11-9-18z m44-134c3 4 3 8 1 11-1 3-4 5-7 6l-1-1c-2-3-1-7 1-9l3-3 3-4z m66-46c0 4-1 7-5 9l-7 1c-2 0-3-1-3-3 0-3 2-4 4-5l9-2h2z m136-30v-1l1-1h1c3 3 7 5 9 9l1 3-1 2-3 1c-7-2-8-7-8-13z m38 57l2 1c6 1 10 6 10 13l-1 3-3-1-7-10-1-6z m-181-60l-2 11c-1 4-4 5-7 5-2 1-4-2-3-4l6-8 4-3 2-1z m200 79l7 7c2 3 1 6 0 8l-3 1c-4-2-7-5-6-10l1-6h1z m-55-36l-7-2c-2-2-3-4-3-7l1-1 10 2c3 1 4 4 4 6-1 2-3 2-5 2z m-256 59l2 5 1 6c1 3-1 4-2 6h-2c-5-4-6-11-2-15l2-2h1z m363-1c6 4 5 13 0 17h-2c-1-1-3-3-2-5 0-4 2-7 3-11l1-1zM335 438c0-5 2-10 3-14 1-2 2-1 2 0l2 6c1 5-2 9-4 13l-1 1-2-2v-4z m357-2l-1 4-2 1h-1c-3-5-5-10-3-16l1-4c1 0 2-1 2 1l4 13v1zM360 288v1c-1 6-9 10-14 9-2-1-2-2-1-3l6-7h9z m-24 118l1 4-2 10-2 2c-3 1-4 0-4-2v-8c1-4 4-5 7-6z m0-92c-1-7 8-13 17-12-2 6-11 12-17 12z m358-1c-8-1-14-5-17-12 4 0 7 0 11 2 3 2 6 5 6 10z m-24-26h5c5-1 8 3 11 7l-1 2c-4 1-7 1-10-1l-4-4-1-4z m21 117c6 2 7 5 7 13 0 1 0 3-2 3-1 1-3 0-4-1-2-4-3-9-1-14v-1zM461 181c0 3 0 6-3 9-2 3-5 3-7 3s-3-1-3-3c2-5 6-7 10-9h3z m111 0c4-1 7 1 9 3s3 5 3 7c1 2-1 2-2 2-6 0-9-3-10-9v-3zM398 493l-2-5 1-8c0-1 1-2 2-1 4 2 6 5 8 9v2h-3c-1-1-3-1-4 1l-1 2h-1z m12-264l-7-1-2-3 2-3c5-2 9 0 13 2 2 1 1 3 0 4l-6 1z m217 262l-3-3c0-2-1-2-2-1l-2 1h-2v-2c2-4 4-7 8-9 1-1 2-1 3 1l-1 10-1 3z m-6-262l-5-2c-2 0-2-3 0-3 4-2 8-4 12-3 2 0 3 2 3 4s-1 2-3 3l-7 1zM347 337c4 4 4 9 2 14l-3 2c-2 1-3 1-4-1l-1-5 3-5 3-5z m-12 119l2-1 8 16 6 9c1 2 1 2-1 5-6-9-11-19-15-29z m354-4l2 2c-4 10-10 19-16 28v-5l13-23 1-2zM358 271c0-3 1-5 4-6l11-2h1c0 7-7 10-16 8z m-3 68v-4l3-7 5-6c1-1 2 0 2 1v4l-1 6c0 4-1 4-5 2a870 870 0 0 1-4 4z m302-76h2l10 2c3 0 4 2 4 5-9 3-15 0-16-7z m26 73l2 7 2 2v6l-3 1c-1 0-3 0-4-2-2-4-2-10 2-13l1-1z m-9 2l-3-3-2-1c-2 2-4 1-4-1l-1-10 1-3 2 2c5 3 5 8 7 13v3z m8-81l1 6v2c2 1 2 2 1 4l-4 5-3-1c-2-5 1-14 5-16zM355 443a48 48 0 0 1 8 5c2 1 2 2 2 5l-2 3c-1 2-3 3-4 0l-5-10v-3h1z m-25-10h-9c-3-3-6-5-7-8 7-2 15 1 16 8z m342 8v4l-5 9c-1 2-3 2-4 0-2-4-3-7 2-9l4-3 3-2v1zM504 189c1 2 0 3-2 3l-27 4c-2 0-3 0-3-2 10-3 21-4 32-5z m-155 68l2 2c3 4 4 8 3 12 0 3-3 5-4 3l-3-3c0-2-1-4 1-5l1-5v-4z m348 174c0-7 8-10 17-8l-3 4a74 74 0 0 1-5 4h-9z m-341-26c-5-5-6-13-3-17 1-2 3-2 3 0 2 3 3 7 2 11l-2 6z m279-131l-6-3-4-7v-1h5c4 0 7 2 8 6 0 2-1 4-3 5z m-234-10l4-1c2 0 2 1 1 2-2 4-4 8-10 9-2 0-3-1-3-3 0-4 3-7 8-7z m-36 36l2 3-1 2-2 5c-1 2-5 4-7 3-1-1-2-2-1-3 0-4 5-9 9-10z m163-111c11 1 22 2 33 5 0 2-1 2-3 2l-27-4c-2 0-3-1-3-3zM371 440v1c0 2 0 4-2 4-2 1-5-2-6-4 0-2 0-5 2-7v-2l1-2 3 1 3 9h-1z m70 72c3 1 5 3 5 6l4 17c-3 0-4-1-5-4l-4-17v-2z m224-213c5 2 8 5 9 9 1 2 0 4-2 4-4 0-6-1-6-4l-1-2-2-3 2-4z m7 104l-3-9 2-7 2-2 2 2c2 6 1 12-3 16z m-17 34l3-8 2-1 2 2 1 3c2 4 0 9-5 10l-2-1-1-5z m-71 73l-6 20-4 3v-2l5-18c0-3 3-2 4-3h1z m59-24c0 5-3 8-7 10l-5-1v-2l3-4 6-5 2-1 1 3z m-253 13l-2-2c-4-2-6-5-6-10 1-1 2-2 3-1l8 7 1 4-4 2z m-44-168l1-4 6-6c1-2 2-1 3 0 1 2 0 7-1 8l-2 4-1 1-1-1c-1-2-2-2-5-2z m337-1c-2-1-4 0-4 2l-2 1-1-2-2-3v-8l2-1 6 7 1 4z" fill="#D48931" p-id="13065"></path><path d="M394 280c0 3-1 4-3 6l-8 4c-2 0-3-1-2-3 1-5 8-8 13-7z m246-1c3 1 7 2 9 6v3l-3 1c-3-1-7-3-9-7-1-2-1-3 3-3z m-29 219l2-4 6-3c3-1 4 0 3 3l-3 8h-2c-2-2-3-4-6-4z m-197 3c-3 0-4 2-6 4h-2l-3-9c-1-2 1-3 3-2l6 4 2 2v1z m-46-225l-1 1-2 2c-4 6-9 4-14 5l2-5 3-1c2-2 4-2 6-2h2l4-1v1z m311 7l-9-1h-1l-7-7v-1l3 1h5l3 1 4 2c2 1 2 2 2 5zM343 451a2032 2032 0 0 0 12 21c1 2 1 4-1 6l-13-25 2-2z m14-192l2-7 3-8 1-1 2 1c2 5-1 9-3 14l-4 2-1-1z m46-44c1-4 2-8 5-11 2-2 3-1 4 2s-2 9-6 11c-2 1-3 0-3-2z m226 0c0 2-1 2-2 2l-1-1c-4-1-7-8-5-12 0-2 1-2 2-1l4 5 2 7z m54 234l2 1-14 25v-5l11-19 1-2z m-36-193c4-3 8-4 13-3l4 4c0 2 0 3-2 3l-7-1-8-3z m27 0l-2 3-4-2-2-9c-1-2 0-3 1-5h2l5 13z m-242-37l-2 1-10 1-3-2-1-2 3-2 10 1 4 2-1 1z m-48 38c-5 1-9 5-15 3-2 0-3-1-2-2l4-4c4-1 9 0 13 3z m78-52c-3 0-5-1-7-3-2-1-2-3-1-5h2a72 72 0 0 1 11 5l1 1-1 1-5 1zM362 410c2 3 2 10-2 15l-4-5v-2c0-3 3-6 6-8z m238-191c1-3 4-4 6-4l6-1c2 0 4 1 4 3l-3 3c-4 1-8 1-13-1z m-36-16l1-1 11-6 3 1c0 2 1 4-1 5-4 3-9 2-14 1z m103 220c-4-4-4-12-1-15 7 5 7 10 1 15zM475 201l27-4c1 2 0 3-2 3l-21 3c-2 0-3 0-4-2zM356 435l-8-4c-2-3-1-6-2-9 7 1 10 7 10 13z m288-214l2-3 18 16-2 2-18-15z m-87-21c0 3-2 3-3 3l-22-3c-2-1-2 0-2-4l27 4z m113 233c-1-6 5-13 11-13-1 3 0 6-3 9l-8 4zM386 218l2 3-18 16-2-2 18-17z m-62 85c2 0 4 2 4 4l2 8c0 2-1 3-3 2-2-2-4-3-4-5l1-9z m382-1v10l-5 4-1-1c-2-4 2-12 5-13h1z m-245-69l-3-1-3-1c-2 0-3 0-3-2-1-2 1-2 2-2 4-2 7-1 11 1 1 1 1 4-1 4l-3 1z m109 0l-3-1c-1-1-2-3 0-4 3-2 7-3 11-1l2 2-2 2-8 2z m-183 20l-2-2 18-16h3l-19 18z m-13 58l-1 6c0 2-4 3-6 1l-2-2v-2l2-2c1-2 3-3 5-3 2-1 3 0 2 2z m282 3v-2l-1-3c0-1 1-2 2-1 3 1 6 2 7 5v2l-2 2-3 1c-1-1-4-1-3-4zM488 214c-1-3-3-3-6-3h-2v-2c2-1 5-4 8-4h1l4 1-2 4-3 4z m159 36l-3 2-18-17h4l17 15z m-173-27l-3-1c-2-1-1-2-1-3l3-4c2-2 4-2 6 1l1 2c1 1 1 2-1 3l-3 2h-2z m70-9l-4-6c-2-1-1-2 1-3l8 1 3 2 1 2h-1l-4 1c-2 0-4 1-4 3z m13 8l-5-2-1-1 4-5c1-1 3-1 4 1l3 3c1 2 0 3-2 4h-3z m-182 21l-2-2 17-15 2 2-17 15z m23-11l-17 16-2-2 9-8 6-5c1-2 3-2 4-1z m19 22l-2 4-4 5c-1 1-2 0-2-1 0-2-1-3-3-3l-1-1 1-1 9-3h2z m2-5l2-2c3-3 6-3 10-2l1 2-4 4-3 1-3-1-1-1-2-1z m221-21l2-3 16 15-2 2-16-14z m-24 25l9 3 1 2h-1c-2 0-3 1-3 3s-1 2-2 1l-6-7c0-2 1-2 2-2z m-13-9l7 2c2 1 2 3 0 4-1 2-3 2-4 1-3-1-6-2-6-5l1-2h2z m47 3l-16-15c1-1 2-2 4 0l13 12 1 1-2 2z m-182-34l-6 7c-2 2-3 1-3-1l-2-3c-1-2 0-4 2-4h9v1z m-81 259c5 2 5 6 6 10 1 2-1 3-3 2-4-1-5-3-4-7l1-5z m252-2l1 6c0 3-3 6-6 6l-2-3c0-3 3-8 7-9z m-75-259h3l6 1c2 0 3 2 2 3l-2 5h-2l-6-6-1-3zM419 515l-2-2-3-5v-3h3l6 5c2 2 1 3-1 4l-3 1z m257-70l3 2-12 20c-1-2-2-3 0-5l8-15 1-2z m-328 4l2-2 1 3 8 15c1 1 1 3-1 5l-10-21z m257 63l-4-1v-2c0-3 6-7 8-7l2 2-4 7-2 1zM445 234l2 1c3 1 3 3 1 4-3 1-5 3-9 2l-2-2c-1-1 1-2 2-3l6-2z m145 7l-7-3c-1-1-1-3 1-3l5-1 4 2 2 2-2 2-3 1zM401 501c1 3 4 5 5 9-2 1-4 1-5-1l-5-4-1-3 3-1h3z m20-266l-1-1v-3l10-5c1-1 2-1 3 1l-1 2c-3 1-6 2-8 5l-3 1z m198 14l-6-3-1-4v-1h8l3 2-2 2c-2 1-2 1-2 4z m-14 267c-2 3-4 5-8 5-1 1-2 0-2-2l1-3c0-2 2-3 5-2l4 2z m14-9c0-4 4-6 5-9h4l2 1-1 3-5 4c-1 2-3 2-5 1zM412 249c1-2 0-3-1-4l-2-2 2-1h9c0 3 0 4-3 5l-3 2h-2z m7 270l5-2c2-1 4 0 5 3v4c-2 1-4 0-6-1l-2-2-2-2z m287-82l-4 8c-1 2-3 1-4 0-2 0-2-1-3-3l1-1 5-2 5-2z m-95-202l-3-2c-2-3-5-4-7-4-2-1-2-2-2-3l3-1 10 6v2l-1 2zM320 439l9 3 3 2-3 3c-2 2-4 2-5-1l-4-7z m96 56l4 2 3 6-1 2h-2l-4-5-1-4 1-1z m194-2c0 2 0 4-2 5l-3 4-2 1-1-2c-1-2 3-8 6-8h2zM426 240l2-3 2-2c0-2 4-3 5-2l1 2-3 4c-2 1-4 2-7 1z m179-1c-2 1-4 1-6-1l-3-4 1-2c2-1 4 0 5 2l2 3 1 2z m-122-13l-2-1 1-2 2-3h3c1 1 2 2 1 3l-5 3z m66-1l-4-2c-1 0-2-1 0-3h3l2 2 1 2-2 1zM339 359c2 1 4 0 3 3l-1 1c-2-1-2-2-2-4z m351-2c-1 2 0 4-2 4l-2-1c0-2 2-2 4-3zM572 515c-1 3-4 3-5 4-1-2 0-2 5-4z m-114 7c-2-1-5-1-5-4 2 1 4 1 5 4z m-5 1c1 2 4 1 5 4-3 0-5-2-5-4z m4 15c-2-1-4-1-4-4 1 1 4 1 4 4z m110-8c0-3 3-3 5-4 0 2-1 2-5 4z m5-9c-1 3-3 2-5 3 0-2 3-2 5-3z m-115 11c-2-1-4 0-4-3 1 1 4 1 4 3z m110 3c0-3 3-3 5-4-1 3-3 3-5 4z m-47 15c0 5-4 9-9 9-6 0-10-4-10-9s4-10 10-10c5 0 9 4 9 10z" fill="#D48931" p-id="13066"></path><path d="M441 457c2 0 4 0 5-2 2-3 4-5 3-8 0-3 0-5-3-6s-4-3-4-6h5c3 0 3 0 4-3l-4-7h3c1 1 3 0 3-2l3-12 1-3 3 2v1c1 2 2 3 4 2h93c2 0 4 0 5-2l1-2h2l1 1 2 11c1 4 1 5 6 4l1 1-4 5-1 2c1 1 1 2 3 2h7c0 4-3 6-6 7l-2 2c0 4 0 8 4 11v1l4 1h37l4 2 4 9v1l1-2a146 146 0 0 0 21-157 141 141 0 0 0-118-79h-17a143 143 0 0 0-110 51c-24 29-36 62-35 100 1 30 11 58 29 83l2 2 3-8c1-2 2-2 3-2h37z m158 35H422c7 5 13 10 20 13l17 9 15 4 1-1-4-5 8-6 3 5 7-4-3-5 8-4 3 4c0 1 1 2 2 1l5-1 2-1v-4h9v5l7 1 2-1 2-4 9 4-3 5 6 4 4-5 7 6-3 5 1 1 15-4-1-2c13-5 26-11 38-20z" fill="#DB0303" p-id="13067"></path><path d="M487 321l2-7 6-21c1-1 1-2-1-3l-21-16-1-2h28c2 0 2 0 3-2l9-26v-1l3 7 7 20c0 2 1 2 2 2h29v1l-2 1-21 16c-1 1-2 2-1 4l8 24 1 3-6-4-18-13h-4a2881 2881 0 0 1-23 17z m-54-29a527 527 0 0 1 10 14l14-2-4 4-6 7c-1 0-2 1-1 3l6 13-6-3-6-4c-2-1-3 0-4 1l-9 8-1 1 2-13c0-2 0-3-2-4l-12-6 14-3c2 0 2 0 3-2l2-14z m141 41l6-13-1-3-8-9-2-1 15 2 2-2 7-13 1 4 1 10 3 3 11 1 3 1-12 6c-2 1-2 2-2 4l2 14-7-7-3-3-3-1-13 7z m-72 32l-12 1c-4 0-4 0-5 4l-3 12-5-11v-1c-1-2-2-3-5-3h-12l3-2 7-6 1-3-5-12v-2l12 8c1 1 2 1 3-1l11-8v3l-3 11 1 2 10 7 2 1z m38-25l7 10c2 3 2 3 6 2l12-3-7 9c-3 4-3 4 0 8l6 10a518 518 0 0 1-17-4l-9 11v-7l1-7c0-2-1-2-2-3l-14-5a1001 1001 0 0 1 16-7l1-14z" fill="#FFD400" p-id="13068"></path><path d="M563 515l-2-3c13-5 26-12 38-20H422l20 13 21 10-1 3-2-1a150 150 0 0 1 24-287 148 148 0 0 1 178 117c8 49-6 92-39 129a150 150 0 0 1-60 39z m62-47l1-1a146 146 0 0 0 20-157 141 141 0 0 0-117-79h-17l-27 2c-33 7-61 23-83 49-24 28-36 62-35 99 1 31 11 59 29 84l2 1 3-8 3-1h37c2 0 4-1 5-3 2-2 3-4 3-7s0-5-3-7c-3-1-4-3-4-6l5 1c3 0 3 0 4-3l-4-7v-1l3 1c1 0 3 0 3-2l3-12 1-3 2 2 1 1c1 2 2 2 4 2h93c2 0 4 0 4-3l2-1 2-1 1 2 2 10c1 5 1 6 6 5h1l-4 5-1 2c1 1 1 3 3 3h7c-1 3-3 5-6 7l-2 1c0 4 0 8 4 11v1c1 2 2 2 4 2h37c2 0 3 0 3 2l5 9z m-208 16c2 2 3 3 5 3h178c2 0 3-1 4-3H417z m150-51c-1-2-1-3-3-3H458c-2 0-3 1-3 3h112z m-49 47c0-4 2-9-3-12-4-2-8-2-11 1-4 3-3 7-3 11h17z m5-36h-24v6l24 1v-7z m-38 36c0-4 1-8-4-10-2-2-5-1-8 1-2 1-3 6-2 9h14z m66 0c0-4 1-8-3-10-3-2-6-1-9 0-3 3-2 7-2 10h14z m16-15l-3-4c0-1-1-3-2-2l-3 2c0 1 0 3-2 3l-1 2c3 0 3 2 3 4v6c0 4 0 4 4 4l1-11 2-4h1z m11 15c1-3 1-6-2-8l-6 1c-3 1-3 4-2 7h10z m-115-21h-2c-2-1-2 0-2 1l-1 2v3l1 7v6l1 2 1-3v-3c0-3 0-7 2-9l1-2-1-4z m-9 21c0-3 0-6-3-7h-6c-2 2-2 5-2 7h11z m115-36h-9v6h9v-6z m-116 7h9v-7h-4c-6 0-6 0-6 6l1 1z m102-7h-6l-1 1v5h6l1-6z m-78 0v6h6v-6h-6z m11 6h6v-6h-6v6z m50 0h6v-6h-6v6z m-11-6v6h6v-6h-6z m-54 0h-6v6h6v-6z" fill="#D48931" p-id="13069"></path><path d="M544 444h-6v6l6 1v-7z m-21 0h-24v6l24 1v-7z m10 6v-6h-6v6h6z m30-20H458c-2 0-3 1-3 3h111c0-2 0-3-3-3z m-48 38c-4-2-8-2-11 1-4 3-3 7-3 11h17c0-4 2-9-3-12z m32 2c-2-2-5-1-8 0-3 3-2 7-2 10h13c1-4 1-8-3-10z m-125 17h178c2 0 3-1 4-3H417c2 2 3 3 5 3z m137-11c0 4 0 4 3 4h1l1-11 2-4h1l-3-4c-1-1-1-3-2-2l-3 2c0 1 0 3-2 3l-1 2c3 0 3 2 3 4v6z m0-26h10v-6h-10v6z m9 30h10c0-3 0-6-3-8l-5 1c-3 2-3 4-2 7z m-13-36h-6l-1 1v5h6l1-6z m-61 6v-6h-6v6h6z m-42 0l1 1h9v-7h-5c-5 0-5 0-5 6z m-7 23c-2 2-2 4-2 7h11c0-3 0-6-3-7h-6z m19-10l-2-4h-1c-2-1-2 0-3 1v2l-1 3 1 7 1 6 1 2 1-3v-3c0-3 0-7 2-9l1-2z m9-19h-6v6h6v-6z m12 36c0-4 1-8-4-10-2-2-5-1-8 1-2 1-3 6-2 9h14z m-2-36h-6v6h6v-6z" fill="#EF9C48" p-id="13070"></path></svg>