<?xml version="1.0" standalone="no"?><!DOCTYPE svg PUBLIC "-//W3C//DTD SVG 1.1//EN" "http://www.w3.org/Graphics/SVG/1.1/DTD/svg11.dtd"><svg t="1611304985070" class="icon" viewBox="0 0 1024 1024" version="1.1" xmlns="http://www.w3.org/2000/svg" p-id="2030" xmlns:xlink="http://www.w3.org/1999/xlink" width="200" height="200"><defs><style type="text/css"></style></defs><path d="M511.413646 65.750493c-247.232824 0-447.682136 200.421682-447.682136 447.682136S264.180821 961.115787 511.413646 961.115787s447.682136-200.421682 447.682136-447.682136S758.645446 65.750493 511.413646 65.750493zM511.413646 905.155265c-216.298278 0-391.721613-175.396729-391.721613-391.721613s175.423335-391.721613 391.721613-391.721613c216.353536 0 391.721613 175.396729 391.721613 391.721613S727.766159 905.155265 511.413646 905.155265z" p-id="2031"></path><path d="M526.387685 472.448192c-10.92891 10.956539-28.635177 10.956539-39.569204 0L328.557014 314.186725c-10.92891-10.956539-10.92891-28.640294 0-39.569204l0 0c10.92891-10.956539 28.635177-10.956539 39.569204 0l158.261467 158.261467C537.316595 443.813015 537.316595 461.519282 526.387685 472.448192L526.387685 472.448192z" p-id="2032"></path><path d="M496.437559 472.448192c-10.92891-10.92891-10.92891-28.635177 0-39.569204L654.699026 274.617521c10.93505-10.92891 28.640294-10.92891 39.569204 0l0 0c10.92891 10.92891 10.92891 28.635177 0 39.569204L536.006763 472.448192C525.072737 483.377102 507.36647 483.377102 496.437559 472.448192L496.437559 472.448192z" p-id="2033"></path><path d="M735.254713 485.453391c0 15.467273-12.512988 27.980261-27.980261 27.980261l-391.721613 0c-15.468296 0-27.980261-12.512988-27.980261-27.980261l0 0c0-15.467273 12.511965-27.980261 27.980261-27.980261l391.721613 0C722.740702 457.473129 735.254713 469.986117 735.254713 485.453391L735.254713 485.453391z" p-id="2034"></path><path d="M735.254713 597.373413c0 15.467273-12.512988 27.980261-27.980261 27.980261l-391.721613 0c-15.468296 0-27.980261-12.512988-27.980261-27.980261l0 0c0-15.467273 12.511965-27.980261 27.980261-27.980261l391.721613 0C722.740702 569.393151 735.254713 581.90614 735.254713 597.373413L735.254713 597.373413z" p-id="2035"></path><path d="M539.392884 765.254981c0 15.467273-12.512988 27.980261-27.980261 27.980261l0 0c-15.468296 0-27.980261-12.512988-27.980261-27.980261L483.432361 485.453391c0-15.467273 12.511965-27.980261 27.980261-27.980261l0 0c15.467273 0 27.980261 12.512988 27.980261 27.980261L539.392884 765.254981z" p-id="2036"></path></svg>