<svg t="1599121101983" name="share-qzone" class="share-icon"
                                             viewBox="0 0 1024 1024"
                                             version="1.1"
                                             xmlns="http://www.w3.org/2000/svg" p-id="7781" width="200" height="200">
                                            <path d="M504.768 24.224c-5.216 2.144-19.872 17.728-19.872 21.28 0 1.184-22.944 49.888-51.072 108.064S381.568 262.56 380.16 266.592c-1.184 3.776-3.328 8.288-4.256 9.696-1.184 1.408-7.808 14.176-14.88 28.384-7.552 15.616-15.616 28.608-20.096 32.16-10.88 9.216-3.552 8.288-221.312 32.64C21.248 380.576 10.368 382.24 4.48 387.68c-4.256 3.776-5.92 17.504-2.848 25.536 0.96 2.112 43.264 42.336 94.112 89.376 160.768 148.48 150.368 138.08 150.368 149.184 0 5.44-3.296 25.056-7.104 43.968-4.032 18.912-12.992 66.208-20.32 105.216s-15.84 83.712-18.912 99.296c-16.32 83.232-16.544 85.6-8.032 94.592 8.032 8.512 17.248 7.552 41.6-4.736 22.688-11.584 24.832-12.768 69.504-39.008 16.32-9.472 37.6-21.76 47.296-27.2s27.648-16.064 39.712-23.392 22.464-13.248 23.168-13.248c0.48 0 7.808-4.256 16.064-9.472s15.84-9.44 16.8-9.44c0.96 0 9.472-4.736 18.912-10.624 22.464-13.952 41.856-21.056 52.96-18.912 4.736 0.96 16.064 5.44 25.056 10.4 23.648 12.544 172.608 98.368 218.944 126.016 39.488 23.648 51.072 28.128 64.544 24.576 8.992-2.144 11.584-15.136 8.512-40.896-1.408-11.584-3.552-24.608-4.736-29.088-1.888-7.552-9.696-49.408-28.608-154.4-8.736-49.888-8.736-50.848 10.88-58.176 27.2-10.176 39.968-19.136 35.008-24.128-1.664-1.664-16.8 0.256-48.224 5.92-58.4 10.624-70.464 12.288-132.16 17.984-70.208 6.624-135.008 8.032-221.568 4.96-67.616-2.368-148-8.288-152.512-11.104-3.552-2.368-1.888-9.696 3.552-14.432 2.848-2.592 38.784-28.384 79.68-57.44 128.16-90.784 211.392-150.848 218.24-157.248 11.808-11.104 10.88-11.584-38.304-17.984-77.792-9.92-98.112-11.584-224.864-17.504-42.336-1.888-80.64-4.256-85.12-4.96-46.336-7.808 189.856-29.088 289.632-26.016 65.504 1.888 142.592 7.328 187.968 13.248 42.336 5.664 44.928 6.144 44.928 10.88 0 3.776-4.48 7.104-104.032 75.648-40.896 28.384-84.416 58.4-96.704 66.912-12.064 8.512-24.576 17.248-27.424 19.136-13.248 8.992-57.696 39.968-69.984 48.928-7.808 5.664-13.952 11.808-13.952 13.728 0 4.48 11.584 7.328 47.296 11.584 94.816 11.104 271.2 17.248 279.008 9.472 1.664-1.664 1.408-6.848-1.184-17.728-1.888-8.288-3.552-16.096-3.552-17.248 0-3.328 40.192-43.52 95.744-95.52 146.816-137.6 150.144-140.928 150.144-151.808 0-9.472-7.808-17.984-19.392-20.8-5.664-1.408-39.488-5.216-75.2-8.736-35.712-3.328-75.2-7.104-87.488-8.288-12.288-1.408-38.304-4.032-57.92-6.144-74.944-7.552-97.888-10.4-103.328-12.992-10.4-4.736-20.096-24.128-91.744-185.376C537.824 44.8 533.344 35.584 526.24 29.216c-5.888-5.44-15.104-7.552-21.504-4.96z"
                                                  fill="#FFCE00" p-id="7782"></path>
                                        </svg>