<svg t="1599121004264" name="share-weibo" class="share-icon"
                                             viewBox="0 0 1024 1024"
                                             version="1.1"
                                             xmlns="http://www.w3.org/2000/svg" p-id="4523" width="200" height="200">
                                            <path d="M851.4 590.193c-22.196-66.233-90.385-90.422-105.912-91.863-15.523-1.442-29.593-9.94-19.295-27.505 10.302-17.566 29.304-68.684-7.248-104.681-36.564-36.14-116.512-22.462-173.094 0.866-56.434 23.327-53.39 7.055-51.65-8.925 1.89-16.848 32.355-111.02-60.791-122.395C311.395 220.86 154.85 370.754 99.572 457.15 16 587.607 29.208 675.873 29.208 675.873h0.58c10.009 121.819 190.787 218.869 412.328 218.869 190.5 0 350.961-71.853 398.402-169.478 0 0 0.143-0.433 0.575-1.156 4.938-10.506 8.71-21.168 11.035-32.254 6.668-26.205 11.755-64.215-0.728-101.66z m-436.7 251.27c-157.71 0-285.674-84.095-285.674-187.768 0-103.671 127.82-187.76 285.674-187.76 157.705 0 285.673 84.089 285.673 187.76 0 103.815-127.968 187.768-285.673 187.768z"
                                                  fill="#E71F19" p-id="4524"></path>
                                            <path d="M803.096 425.327c2.896 1.298 5.945 1.869 8.994 1.869 8.993 0 17.7-5.328 21.323-14.112 5.95-13.964 8.993-28.793 8.993-44.205 0-62.488-51.208-113.321-114.181-113.321-15.379 0-30.32 3.022-44.396 8.926-11.755 4.896-17.263 18.432-12.335 30.24 4.933 11.662 18.572 17.134 30.465 12.238 8.419-3.46 17.268-5.33 26.41-5.33 37.431 0 67.752 30.241 67.752 67.247 0 9.068-1.735 17.857-5.369 26.202a22.832 22.832 0 0 0 12.335 30.236l0.01 0.01z"
                                                  fill="#F5AA15" p-id="4525"></path>
                                            <path d="M726.922 114.157c-25.969 0-51.65 3.744-76.315 10.942-18.423 5.472-28.868 24.622-23.5 42.91 5.509 18.29 24.804 28.657 43.237 23.329a201.888 201.888 0 0 1 56.578-8.064c109.253 0 198.189 88.271 198.189 196.696 0 19.436-2.905 38.729-8.419 57.16-5.508 18.289 4.79 37.588 23.212 43.053 3.342 1.014 6.817 1.442 10.159 1.442 14.943 0 28.725-9.648 33.37-24.48 7.547-24.906 11.462-50.826 11.462-77.175-0.143-146.588-120.278-265.813-267.973-265.813z"
                                                  fill="#F5AA15" p-id="4526"></path>
                                            <path d="M388.294 534.47c-84.151 0-152.34 59.178-152.34 132.334 0 73.141 68.189 132.328 152.34 132.328 84.148 0 152.337-59.182 152.337-132.328 0-73.15-68.19-132.334-152.337-132.334zM338.53 752.763c-29.454 0-53.39-23.755-53.39-52.987 0-29.228 23.941-52.989 53.39-52.989 29.453 0 53.39 23.76 53.39 52.989 0 29.227-23.937 52.987-53.39 52.987z m99.82-95.465c-6.382 11.086-19.296 15.696-28.726 10.219-9.43-5.323-11.75-18.717-5.37-29.803 6.386-11.09 19.297-15.7 28.725-10.224 9.43 5.472 11.755 18.864 5.37 29.808z"
                                                  fill="#040000" p-id="4527"></path>
                                        </svg>