<svg class="icon" viewBox="0 0 1024 1024">
    <path d="M793.472 102.208c-70.592 0-128 57.408-128 128 0 7.744 0.96 15.232 2.304 22.656L273.6 422.976C250.368 399.04 217.92 384 181.952 384c-70.592 0-128 57.408-128 128 0 70.592 57.408 128 128 128 22.912 0 44.096-6.592 62.72-17.152l289.088 180.992c-4.672 13.312-7.744 27.392-7.744 42.24 0 70.592 57.408 128 128 128s128-57.408 128-128-57.408-128-128-128c-32.512 0-61.888 12.544-84.48 32.64L291.712 576.832C302.976 557.696 309.952 535.744 309.952 512c0-11.456-1.984-22.336-4.8-32.896l389.76-168.32c23.488 28.672 58.752 47.36 98.624 47.36 70.592 0 128-57.408 128-128S864.064 102.208 793.472 102.208zM117.952 512c0-35.264 28.736-64 64-64s64 28.736 64 64-28.736 64-64 64S117.952 547.264 117.952 512zM654.016 782.144c35.328 0 64 28.672 64 64s-28.672 64-64 64-64-28.672-64-64S618.688 782.144 654.016 782.144zM793.472 294.208c-35.328 0-64-28.736-64-64s28.672-64 64-64 64 28.736 64 64S828.8 294.208 793.472 294.208z"></path>
</svg>