<?xml version="1.0" standalone="no"?><!DOCTYPE svg PUBLIC "-//W3C//DTD SVG 1.1//EN" "http://www.w3.org/Graphics/SVG/1.1/DTD/svg11.dtd"><svg t="1592189857809" class="icon" viewBox="0 0 1024 1024" version="1.1" xmlns="http://www.w3.org/2000/svg" p-id="7926" xmlns:xlink="http://www.w3.org/1999/xlink" width="200" height="200"><defs><style type="text/css"></style></defs><path d="M72.558 512c0-63.415 13.714-124.014 38.29-178.87l209.7 574.28c-146.87-71.424-247.99-221.696-247.99-395.447z m736-22.272c0 37.705-15.433 81.152-33.72 142.3l-43.446 146.285-158.866-471.99s26.295-1.72 50.285-4.572c23.443-2.853 20.554-37.705-2.852-35.986-71.424 5.156-117.138 5.705-117.138 5.705s-42.862-0.585-115.42-5.705c-23.99-1.72-26.843 34.304-2.852 35.986a7976.637 7976.637 0 0 0 45.714 4.571l68.571 187.429-96 288-160-475.429s26.295-1.719 50.286-4.571c23.442-2.853 20.553-37.705-2.853-35.986-70.838 5.156-117.138 5.705-117.138 5.705-8.009 0-17.7-0.585-28.014-0.585a437.614 437.614 0 0 1 366.848-198.29c114.286 0 218.295 43.995 296.558 115.419h-5.705c-42.862 0-73.728 37.156-73.728 77.714 0 35.986 21.138 66.304 43.447 102.839 17.152 29.147 35.986 66.852 35.986 121.161zM519.424 550.29l135.424 369.7a21.577 21.577 0 0 0 2.853 6.291C611.986 942.3 563.419 951.442 512 951.442c-42.862 0-84.553-6.29-124.014-18.285z m377.71-249.16A438.126 438.126 0 0 1 951.406 512c0 162.304-87.991 303.433-218.844 379.429l134.29-387.438c22.273-64 33.72-113.152 33.72-157.696 0-16.018-1.134-30.866-3.438-45.13zM512 0c282.295 0 512 229.705 512 512s-229.705 512-512 512S0 794.295 0 512 229.705 0 512 0z m0 1000.558c269.13 0 488.558-219.429 488.558-488.558S781.129 23.442 512 23.442 23.442 242.871 23.442 512 242.871 1000.558 512 1000.558z" p-id="7927" fill="#ffffff"></path></svg>