<?xml version="1.0" standalone="no"?><!DOCTYPE svg PUBLIC "-//W3C//DTD SVG 1.1//EN" "http://www.w3.org/Graphics/SVG/1.1/DTD/svg11.dtd"><svg t="1611032176148" class="icon" viewBox="0 0 1024 1024" version="1.1" xmlns="http://www.w3.org/2000/svg" p-id="3394" xmlns:xlink="http://www.w3.org/1999/xlink" width="200" height="200"><defs><style type="text/css"></style></defs><path d="M135.466667 823.68a370.56 93.653333 0 1 0 741.12 0 370.56 93.653333 0 1 0-741.12 0Z" fill="#B6C9CB" p-id="3395"></path><path d="M85.333333 812.373333v-661.333333c8.746667-23.04 23.466667-42.666667 49.28-42.666667 55.253333 1.28 110.933333-9.386667 165.546667 6.826667a14.506667 14.506667 0 0 0 10.88-2.346667 71.68 71.68 0 0 1 32.213333-5.546666h114.56a56.32 56.32 0 0 1 64 52.906666 61.44 61.44 0 0 0-8.746666 69.546667 206.506667 206.506667 0 0 1 8.533333 29.226667V800.426667A51.626667 51.626667 0 0 1 472.746667 853.333333c-55.253333 0-111.146667 8.96-165.973334-6.186666a13.866667 13.866667 0 0 0-9.173333 0 95.573333 95.573333 0 0 1-45.653333 6.186666l-93.226667 1.28c-33.706667 2.56-61.44-6.613333-73.386667-42.24z m389.12-331.733333V175.573333c0-10.453333 1.92-21.333333-14.72-21.333333h-118.613333a14.506667 14.506667 0 0 0-15.573333 10.666667 95.146667 95.146667 0 0 0-7.04 41.386666v568.32c1.493333 26.666667 9.6 34.346667 36.053333 34.346667h99.2c16.426667 0 21.333333-5.333333 21.333333-21.333333-0.853333-102.4-0.64-204.8-0.64-306.986667z m-342.4 0V787.2c0 9.6-1.92 20.053333 13.653334 19.84h120.533333c6.186667 0 11.52 0 13.44-7.893333a139.093333 139.093333 0 0 0 8.32-39.04V200.32a145.92 145.92 0 0 0 0-15.573333c-2.773333-25.173333-9.813333-31.36-34.986667-31.36H153.813333c-17.493333 0-21.333333 5.333333-21.333333 21.333333 0 102.613333-0.426667 205.226667-0.426667 306.773333z" fill="#314553" p-id="3396"></path><path d="M864 828.8l-62.08 21.333333c-40.533333 14.08-66.986667 1.493333-81.92-39.253333-7.893333-21.333333-16.213333-42.666667-24.32-64l-3.626667-3.84a64 64 0 0 0-5.76-24.32c-36.053333-100.693333-71.68-201.813333-108.373333-302.293333-18.986667-51.84-34.986667-104.96-57.386667-155.52a206.506667 206.506667 0 0 0-8.533333-29.226667 61.44 61.44 0 0 1 8.746667-69.546667A671.146667 671.146667 0 0 1 661.333333 108.586667c27.946667-8.106667 51.2 9.173333 62.08 39.68q52.48 145.92 104.533334 292.053333l103.68 290.346667c16.64 46.293333 5.333333 70.613333-40.32 87.466666-9.386667 3.2-18.346667 7.04-27.306667 10.666667z m26.88-71.893333s-1.28-4.053333-2.346667-7.04q-103.893333-290.986667-207.573333-581.76c-4.48-12.8-10.453333-15.36-23.04-10.666667-29.013333 11.306667-58.026667 21.333333-87.893333 31.146667-17.28 5.333333-18.133333 13.013333-12.586667 28.373333C597.333333 326.4 636.16 436.266667 675.413333 546.133333l88.32 246.826667c3.2 9.173333 5.546667 19.413333 19.84 14.08 32.853333-12.16 65.706667-23.68 98.773334-35.413333a11.306667 11.306667 0 0 0 8.746666-14.72z" fill="#793943" p-id="3397"></path><path d="M474.453333 480.64v306.986667c0 15.786667-4.266667 21.333333-21.333333 21.333333-33.066667-1.066667-66.133333 0-99.2 0-26.453333 0-34.56-7.68-36.053333-34.346667v-13.653333-554.666667a95.146667 95.146667 0 0 1 7.04-41.386666 14.506667 14.506667 0 0 1 15.573333-10.666667h118.613333c16.64 0 14.72 10.453333 14.72 21.333333q0.64 152.32 0.64 305.066667zM412.16 576v132.053333c0 11.093333 1.066667 21.333333 14.72 22.826667s16.64-11.093333 16.426667-23.04V443.733333c0-11.093333-1.066667-21.333333-14.72-22.826666s-16.64 11.093333-16.64 23.04c0.426667 43.093333 0.213333 87.04 0.213333 132.053333z m38.826667-290.986667a50.56 50.56 0 1 0-51.413334 49.706667 50.986667 50.986667 0 0 0 51.626667-50.773333z m-93.226667 356.053334v67.84c0 10.88 2.346667 21.333333 14.72 21.333333s16.64-9.386667 16.64-21.333333v-135.68c0-10.88-2.56-21.333333-14.72-21.333334s-16.64 9.386667-16.64 21.333334c0.213333 22.613333 0 45.44 0 67.84zM132.053333 481.493333V176.426667c0-16.853333 4.266667-22.826667 21.333334-21.333334 33.066667 1.28 66.133333 0 99.2 0 25.386667 0 32.213333 6.186667 34.986666 31.36a145.92 145.92 0 0 1 0 15.573334v559.786666a139.093333 139.093333 0 0 1-8.32 39.04c-2.133333 7.466667-7.466667 7.893333-13.44 7.893334H145.28c-15.573333 0-13.653333-10.24-13.653333-19.84v-277.333334q0.426667-15.36 0.426666-30.08z m62.293334 106.666667v-120.32c0-11.733333 0-23.893333-15.36-24.106667s-16 11.733333-16 23.68v238.933334c0 11.52 0 23.893333 15.36 24.106666s16-11.733333 16-23.68c-0.213333-39.893333 0-79.36 0-118.826666zM256 283.733333a50.56 50.56 0 1 0-51.2 49.92A50.773333 50.773333 0 0 0 256 283.733333z m-7.68 341.333334v-81.493334c0-11.306667-1.706667-21.333333-15.36-21.333333s-16 10.24-16 21.333333v164.906667c0 11.306667 1.706667 21.333333 15.36 21.333333s16-10.24 16-21.333333c0.213333-27.946667 0.426667-55.893333 0.426667-83.626667z" fill="#B7E1EB" p-id="3398"></path><path d="M891.093333 756.906667a11.306667 11.306667 0 0 1-8.746666 14.72c-32.853333 11.733333-65.92 23.466667-98.773334 35.413333-14.293333 5.333333-16.64-4.906667-19.84-14.08L675.413333 546.133333c-39.253333-109.866667-78.08-219.733333-118.186666-329.173333-5.546667-15.146667-4.693333-23.04 12.586666-28.373333 29.653333-8.96 58.88-20.053333 87.893334-31.146667 12.586667-4.906667 18.56-2.346667 23.04 10.666667q103.68 290.986667 207.786666 581.76c1.28 2.986667 2.133333 5.973333 2.56 7.04zM770.773333 490.666667c0-2.56-2.133333-6.826667-3.626666-11.093334L687.786667 256a82.56 82.56 0 0 0-3.626667-8.96c-3.84-7.68-9.813333-12.8-18.56-9.813333a14.933333 14.933333 0 0 0-10.453333 19.84c0 3.2 1.92 6.186667 2.986666 9.173333L737.92 490.666667a68.48 68.48 0 0 0 5.333333 12.373333 14.293333 14.293333 0 0 0 18.56 5.973333c6.186667-3.413333 9.386667-9.386667 8.96-18.346666z m19.2 128a50.56 50.56 0 1 0 50.133334 50.986666A50.986667 50.986667 0 0 0 789.333333 618.666667z m-96.64-182.4c0-2.986667-2.56-8.533333-4.48-14.08q-26.026667-72.96-52.053333-144.853334c-3.84-10.88-7.466667-24.746667-23.253333-19.413333s-10.666667 17.92-6.4 29.226667l52.906666 147.626666a72.533333 72.533333 0 0 0 5.973334 14.293334 13.866667 13.866667 0 0 0 17.066666 5.76c7.04-3.2 10.24-8.746667 10.24-18.56z" fill="#FBB6AC" p-id="3399"></path><path d="M412.16 576v-132.053333c0-11.946667 1.493333-23.68 16.64-23.04s14.72 11.733333 14.72 22.826666v264.106667c0 11.946667-1.493333 23.68-16.426667 23.04s-14.72-11.733333-14.72-22.826667c0-45.013333-0.213333-89.386667-0.213333-132.053333zM451.2 283.946667a50.56 50.56 0 1 1-49.493333-51.413334 50.986667 50.986667 0 0 1 49.493333 51.413334z m-30.933333-1.706667c-2.346667-11.52-8.746667-18.986667-21.333334-18.133333a18.986667 18.986667 0 0 0 1.493334 38.186666c12.586667-0.213333 18.346667-8.32 19.626666-20.053333zM357.76 641.066667v-67.84c0-11.733333 2.986667-21.333333 16.64-21.333334s14.72 10.24 14.72 21.333334v135.68c0 11.733333-2.986667 21.333333-16.64 21.333333s-14.72-10.24-14.72-21.333333c0.213333-22.613333 0-45.226667 0-67.84zM194.346667 587.946667v118.4c0 11.733333 0 23.893333-16 23.68s-15.36-12.586667-15.36-24.106667v-238.933333c0-11.733333 0-23.893333 16-23.68s15.36 12.586667 15.36 24.106666c-0.213333 40.32 0 80.426667 0 120.533334zM256 283.733333a50.56 50.56 0 1 1-49.92-51.2A50.773333 50.773333 0 0 1 256 283.733333z m-30.72 0a19.626667 19.626667 0 0 0-19.2-19.2 19.2 19.2 0 0 0-1.92 38.186667c12.586667 0.426667 18.986667-7.253333 21.546667-19.626667zM248.746667 624.853333v83.413334c0 11.52-2.346667 21.333333-16 21.333333s-15.36-10.88-15.36-21.333333v-164.906667c0-11.52 2.346667-21.333333 16-21.333333s15.36 10.88 15.36 21.333333c-0.213333 27.093333 0 53.973333 0 81.493333z" fill="#314553" p-id="3400"></path><path d="M770.773333 490.666667c0 8.96-1.92 14.933333-8.746666 17.493333a14.293333 14.293333 0 0 1-18.56-5.973333 68.48 68.48 0 0 1-5.333334-12.373334l-80-222.72c-1.066667-2.986667-2.133333-6.186667-2.986666-9.173333a14.933333 14.933333 0 0 1 10.453333-19.84c8.746667-2.986667 14.933333 1.92 18.56 9.813333a82.56 82.56 0 0 1 3.626667 8.96L768 479.573333c0 4.266667 1.92 8.533333 2.773333 11.093334zM789.333333 618.666667a50.56 50.56 0 1 1 0 100.906666A50.56 50.56 0 0 1 789.333333 618.666667z m19.2 50.56c-1.92-11.52-8.106667-19.413333-20.053333-18.986667a18.986667 18.986667 0 0 0 0 37.973333c12.586667-0.426667 18.56-8.32 20.48-19.84zM693.333333 436.266667c0 10.026667-3.2 15.36-10.24 17.493333a13.866667 13.866667 0 0 1-17.066666-5.76 72.533333 72.533333 0 0 1-5.973334-14.293333l-52.906666-147.626667c-4.053333-11.306667-9.173333-24.106667 6.4-29.226667s19.2 8.533333 23.253333 19.413334l52.053333 145.92c1.92 4.48 3.413333 11.093333 4.48 14.08z" fill="#793943" p-id="3401"></path></svg>